<svg width="53" height="35" viewBox="0 0 53 35" fill="none" xmlns="http://www.w3.org/2000/svg">
<path d="M48.5333 34.7022H3.46667C2.54725 34.7022 1.66549 34.344 1.01536 33.7064C0.365237 33.0688 0 32.204 0 31.3022L0 16.9996H2.49744L3.06078 15.6622H4.32178L4.88367 16.9939H9.79767V15.981L10.2368 17.001H12.7877L13.2268 15.964V16.9982H25.4367V14.8108H25.6678C25.8324 14.8165 25.8801 14.8307 25.8801 15.0998V17.001H32.1967V16.4924C32.8423 16.814 33.6036 17.0024 34.411 17.0024L34.5482 17.001H34.541H37.1988L37.7679 15.6693H39.0289L39.585 17.001H44.707V15.7345L45.4812 17.001H49.5777V8.63699H45.5231V9.62441L44.9554 8.63699H40.7868V9.62441L40.2653 8.63699H34.6363C33.7836 8.5966 32.9344 8.76864 32.1678 9.13708L32.1981 9.12433V8.63699H28.3154V9.12433C27.8453 8.76142 27.2519 8.58768 26.6558 8.63841H26.6644H12.4757L11.5238 10.7988L10.5459 8.63841H6.07678V9.62583L5.58422 8.63841H1.77089L0.00433333 12.6051V4.10508C0.00433333 3.20334 0.36957 2.33854 1.0197 1.70092C1.66982 1.06329 2.55158 0.705078 3.471 0.705078H48.5377C49.4571 0.705078 50.3388 1.06329 50.989 1.70092C51.6391 2.33854 52.0043 3.20334 52.0043 4.10508V18.9517H49.2989C49.2536 18.9499 49.205 18.9489 49.153 18.9489C48.5261 18.9489 47.944 19.1331 47.4587 19.449L47.4702 19.4419V18.9517H43.4691C42.844 18.9175 42.2254 19.0918 41.7141 19.4462L41.7228 19.4405V18.9503H34.5786V19.4405C33.9933 19.118 33.3331 18.9492 32.6618 18.9503H32.6054H32.6083H27.8951V19.4405C27.2795 19.0533 26.5487 18.8811 25.8209 18.9517L25.8339 18.9503H20.5602L19.3527 20.231L18.2231 18.9503H10.3451V27.32H18.0758L19.3194 26.0195L20.4909 27.32H25.2561V25.3607H25.9206C26.5595 25.3864 27.197 25.2817 27.7926 25.0533L27.7608 25.0647V27.3228H31.6897V25.1426H31.8789C32.1187 25.1426 32.1432 25.1511 32.1432 25.3891V27.3242H44.083L44.2289 27.3271C44.9136 27.3271 45.552 27.1259 46.0836 26.7817L46.0706 26.7887V27.3242H49.8579L50.0384 27.3271C50.7477 27.3271 51.4222 27.184 52.0347 26.9247L52.0014 26.9375V31.3037C52.0014 32.2054 51.6362 33.0702 50.9861 33.7078C50.336 34.3454 49.4542 34.7037 48.5348 34.7037L48.5333 34.7022ZM30.485 26.147H29.0146V20.1474H32.3888C32.9982 20.092 33.6118 20.1926 34.1698 20.4392L34.1467 20.4307C34.5988 20.6744 34.9007 21.1391 34.9007 21.6717L34.8978 21.7667V21.7624L34.8992 21.8162C34.8992 22.5047 34.476 23.0969 33.8693 23.3547L33.8578 23.359C34.1481 23.461 34.3908 23.6352 34.5713 23.8605L34.5742 23.8633C34.7777 24.1946 34.8631 24.5828 34.8169 24.9669L34.8183 24.9584V26.1456H33.3508V25.3947C33.4219 24.9859 33.3381 24.5657 33.1153 24.2132L33.1197 24.2203C32.9672 24.1068 32.7928 24.0248 32.6071 23.9793C32.4214 23.9337 32.2282 23.9256 32.0392 23.9554L32.0479 23.954H30.485V26.1456V26.147ZM30.485 21.387V22.7342H32.2617C32.5126 22.757 32.765 22.7129 32.9926 22.6067L32.9839 22.611C33.0767 22.552 33.1531 22.4713 33.2061 22.376C33.2591 22.2808 33.2869 22.1741 33.2872 22.0656L33.2858 22.033C33.2938 21.9246 33.2699 21.8176 33.2169 21.7222C33.1639 21.6267 33.084 21.5482 32.9868 21.4961L32.9839 21.4947C32.7641 21.4005 32.5238 21.3616 32.2848 21.3813H32.2906L30.485 21.387ZM17.4489 26.1456H11.661V20.1474H17.5399L19.3382 22.1137L21.1972 20.1474H25.8671C27.5253 20.1474 28.3313 20.7948 28.3313 22.1237C28.3313 23.4766 27.4979 24.1339 25.7891 24.1339H23.9619V26.1442H21.1207L19.3209 24.1622L17.4489 26.1456ZM22.5059 20.7906L20.2612 23.1564L22.5059 25.5987V20.7906ZM13.1184 23.7018V24.8947H16.7122L18.3733 23.1352L16.7758 21.387H13.117V22.4778H16.3266V23.7004L13.1184 23.7018ZM23.9619 21.3884V22.9156H25.8498C26.4276 22.9156 26.7598 22.6266 26.7598 22.1222C26.7598 21.6406 26.4507 21.387 25.8657 21.387L23.9619 21.3884ZM50.0168 26.1484H47.1943V24.8592H50.0052C50.2155 24.8875 50.4288 24.8336 50.5989 24.7091L50.5974 24.7105C50.6518 24.6612 50.6952 24.6014 50.7248 24.5348C50.7544 24.4683 50.7696 24.3964 50.7693 24.3237V24.3011C50.7692 24.2294 50.7533 24.1586 50.7226 24.0935C50.692 24.0285 50.6473 23.9707 50.5917 23.9242C50.443 23.8166 50.2579 23.769 50.0746 23.7911H50.0774L49.8073 23.7826C48.4871 23.7486 46.9921 23.7089 46.9921 21.9338C46.9921 21.0697 47.5439 20.1474 49.088 20.1474H52.0014V21.4252H49.3364C49.1306 21.4033 48.9229 21.4438 48.7413 21.5414L48.7471 21.5386C48.6759 21.5847 48.6186 21.6488 48.5813 21.724C48.5439 21.7993 48.5279 21.883 48.5348 21.9664V21.965V21.9806C48.5348 22.076 48.5655 22.1691 48.6225 22.2464C48.6796 22.3237 48.7601 22.3814 48.8526 22.4112L48.8554 22.4127C49.0385 22.4686 49.2303 22.4917 49.4217 22.4807H49.4173L50.2103 22.5005C50.8081 22.4415 51.4055 22.6161 51.8729 22.9864L51.8686 22.9836C51.9119 23.0176 51.9499 23.0549 51.9827 23.0955L51.9841 23.0969L52.0014 25.3806C51.7583 25.6587 51.4492 25.874 51.1014 26.0076C50.7537 26.1412 50.3777 26.1891 50.0067 26.147L50.0168 26.1484ZM44.3127 26.1484H41.4642V24.8592H44.2982C44.5103 24.886 44.7247 24.8323 44.8977 24.7091L44.8948 24.7105C44.9489 24.6611 44.992 24.6012 45.0214 24.5347C45.0507 24.4681 45.0656 24.3963 45.0652 24.3237V24.3096C45.0654 24.2366 45.0497 24.1645 45.019 24.098C44.9884 24.0315 44.9435 23.9723 44.8876 23.9242C44.7352 23.8187 44.5487 23.7713 44.3632 23.7911H44.3661L44.0974 23.7826C42.7816 23.7486 41.288 23.7089 41.288 21.9338C41.288 21.0697 41.8369 20.1474 43.3781 20.1474H46.3074V21.4252H43.6266C43.4222 21.4042 43.2161 21.4447 43.0358 21.5414L43.0416 21.5386C42.9657 21.5898 42.9053 21.6602 42.8668 21.7422C42.8284 21.8243 42.8132 21.9151 42.823 22.0049C42.8327 22.0947 42.8671 22.1803 42.9223 22.2526C42.9776 22.3248 43.0517 22.3811 43.1369 22.4155L43.1398 22.4169C43.3251 22.4738 43.5194 22.4968 43.7132 22.4849H43.7089L44.4961 22.5047C45.0972 22.4466 45.6976 22.6215 46.1688 22.9921L46.1644 22.9878C46.3234 23.1593 46.4443 23.3613 46.5194 23.5811C46.5945 23.8008 46.6221 24.0335 46.6007 24.2642V24.2572C46.605 25.5081 45.8322 26.1456 44.3083 26.1456L44.3127 26.1484ZM40.5889 26.1484H35.7067V20.146H40.5846V21.3856H37.1656V22.4764H40.5051V23.699H37.1656V24.8918L40.5889 24.8975V26.1442V26.1484ZM43.4344 15.8266H40.4574L39.8883 14.4892H36.8521L36.3003 15.8266H34.5901C33.8221 15.8663 33.0658 15.629 32.4639 15.1593L32.4711 15.1636C32.185 14.8542 31.9679 14.4896 31.8336 14.0932C31.6993 13.6968 31.6508 13.2773 31.6911 12.8615L31.6897 12.8728C31.6514 12.4493 31.7018 12.0225 31.838 11.6188C31.9741 11.2151 32.193 10.843 32.4812 10.5254L32.4783 10.5282C32.7815 10.2679 33.1362 10.0716 33.5201 9.95173C33.9041 9.83181 34.3092 9.79079 34.71 9.83124L34.6984 9.82983H36.114V11.1091H34.7273C34.5244 11.0831 34.3182 11.1016 34.1234 11.1631C33.9286 11.2245 33.7501 11.3275 33.6007 11.4647L33.6021 11.4632C33.2942 11.8516 33.1443 12.3383 33.1818 12.8289V12.8218C33.1362 13.3259 33.2806 13.829 33.5877 14.2357L33.5833 14.23C33.8703 14.4606 34.238 14.5715 34.6074 14.5388H34.6017H35.2574L37.3244 9.82133H39.52L41.9943 15.488V9.82133H44.2202L46.7884 13.9977V9.82133H48.2907V15.8167H46.2049L43.4316 11.3145V15.8167L43.4344 15.8266ZM38.3803 10.8427L37.3736 13.2341H39.3914L38.3803 10.8427ZM24.2262 15.8237H22.7644V9.82558H26.1271C26.7409 9.76332 27.3605 9.86566 27.9197 10.1217L27.898 10.1132C28.1224 10.2356 28.3095 10.4144 28.44 10.6313C28.5705 10.8482 28.6397 11.0952 28.6404 11.3471L28.6376 11.4462V11.442V11.4859C28.6377 11.8131 28.5415 12.1334 28.3606 12.4083C28.1797 12.6832 27.9218 12.9011 27.6178 13.0357L27.6062 13.04C27.8966 13.1477 28.1407 13.3205 28.327 13.5415L28.3299 13.5443C28.5374 13.8761 28.6225 14.2676 28.5711 14.6536L28.5726 14.6451V15.8223H27.0978L27.092 15.0658V14.9525C27.1458 14.5826 27.0622 14.206 26.8566 13.8914L26.8609 13.8985C26.7077 13.7886 26.534 13.7094 26.3496 13.6654C26.1652 13.6214 25.9737 13.6135 25.7862 13.6421L25.7949 13.6407H24.2277V15.8223L24.2262 15.8237ZM24.2262 11.0737V12.4053H26C26.2506 12.4331 26.5041 12.3888 26.7294 12.2778L26.7222 12.2807C26.8145 12.2252 26.8907 12.1475 26.9438 12.0551C26.9969 11.9626 27.025 11.8584 27.0256 11.7522L27.0241 11.7126C27.0315 11.6049 27.0065 11.499 26.9524 11.4051C26.8982 11.3111 26.8172 11.2349 26.7193 11.1856L26.7164 11.1842C26.4971 11.0903 26.2573 11.0513 26.0188 11.0708H26.0231L24.2262 11.0737ZM8.74756 15.8237H5.77778L5.21589 14.4864H2.171L1.60478 15.8237H0.0158889L2.63467 9.82558H4.80567L7.29156 15.5022V9.82558H9.67633L11.5888 13.8928L13.3467 9.82558H15.7806V15.8209H14.2783L14.2754 11.1289L12.1564 15.8223H10.8738L8.749 11.1218V15.8223L8.74756 15.8237ZM3.68622 10.8427L2.691 13.2341H4.68722L3.68622 10.8427ZM30.9689 15.8223H29.4782V9.82558H30.9703V15.8209L30.9689 15.8223ZM21.7447 15.8223H16.8711V9.82558H21.7533V11.0722H18.3329V12.1532H21.671V13.3842H18.33V14.5827H21.7504V15.8209L21.7447 15.8223Z" fill="#111111"/>
</svg>
