<svg width="48" height="35" viewBox="0 0 48 35" fill="none" xmlns="http://www.w3.org/2000/svg">
<path d="M44.8 34.7021H3.2C2.35131 34.7021 1.53737 34.3439 0.937258 33.7063C0.337142 33.0687 0 32.2039 0 31.3021L0 4.10215C0 3.20041 0.337142 2.33561 0.937258 1.69799C1.53737 1.06036 2.35131 0.702148 3.2 0.702148L44.8 0.702148C45.6487 0.702148 46.4626 1.06036 47.0627 1.69799C47.6629 2.33561 48 3.20041 48 4.10215V31.3021C48 32.2039 47.6629 33.0687 47.0627 33.7063C46.4626 34.3439 45.6487 34.7021 44.8 34.7021ZM18.7093 15.3292C18.6727 15.3293 18.6367 15.3383 18.6039 15.3555C18.571 15.3727 18.5424 15.3976 18.52 15.4284C18.4675 15.4852 18.4374 15.5613 18.436 15.6409C18.436 15.6706 18.5667 16.0942 18.8467 16.9626L19.452 18.8411L19.7333 19.7166C20.0489 20.6989 20.2138 21.2211 20.228 21.2835C19.6074 22.1002 19.0462 22.9659 18.5493 23.8731L18.4987 23.9723L18.496 24.0077C18.496 24.1494 18.604 24.2656 18.7387 24.2656L18.7747 24.2627H18.7733H20.3973C20.4729 24.2616 20.547 24.2404 20.6129 24.201C20.6788 24.1617 20.7344 24.1055 20.7747 24.0375L20.776 24.0361L26.152 15.7925C26.1804 15.753 26.1959 15.7048 26.196 15.6551L26.1947 15.6338V15.6352C26.1933 15.5556 26.1632 15.4796 26.1107 15.4227C26.0884 15.3921 26.06 15.3673 26.0274 15.3502C25.9948 15.333 25.959 15.3239 25.9227 15.3236H24.2973C24.2215 15.3245 24.1471 15.3456 24.081 15.3849C24.0148 15.4243 23.959 15.4806 23.9187 15.5488L23.9173 15.5502L21.6773 19.0437L20.7507 15.6834C20.7269 15.581 20.6716 15.49 20.5936 15.4248C20.5156 15.3596 20.4193 15.324 20.32 15.3236L20.2853 15.325H20.2867L18.7093 15.3292ZM37.3467 15.172H37.312C36.3013 15.172 35.3933 15.6381 34.7667 16.3776L34.764 16.3804C34.0791 17.1339 33.6966 18.1407 33.6973 19.1882V19.2265V19.2251C33.6956 19.2676 33.6947 19.3138 33.6947 19.3639C33.6947 20.1246 33.9733 20.8174 34.4267 21.3316L34.4253 21.3302C34.6831 21.5972 34.99 21.8048 35.3269 21.9398C35.6637 22.0749 36.0231 22.1345 36.3827 22.1151H36.376C36.8253 22.1094 37.252 22.0116 37.6413 21.836L37.62 21.8445C38.0133 21.6872 38.3467 21.4421 38.6093 21.1305L38.612 21.1276C38.5987 21.207 38.5836 21.2783 38.5667 21.3416L38.5693 21.3274C38.5472 21.4145 38.5329 21.5037 38.5267 21.5937V21.5966C38.5267 21.8346 38.6182 21.954 38.8013 21.955H40.256C40.3128 21.9604 40.3701 21.9537 40.4244 21.9352C40.4787 21.9167 40.5289 21.8868 40.5722 21.8473C40.6155 21.8078 40.6508 21.7595 40.6762 21.7053C40.7016 21.651 40.7165 21.5919 40.72 21.5314V21.53L41.584 15.6834C41.5921 15.6393 41.5906 15.5938 41.5798 15.5504C41.5689 15.507 41.5489 15.4667 41.5213 15.4326C41.4969 15.398 41.4653 15.3698 41.429 15.3502C41.3928 15.3305 41.3527 15.32 41.312 15.3193H39.708C39.512 15.3193 39.388 15.5672 39.348 16.0588C39.1132 15.739 38.8045 15.4891 38.452 15.3334C38.0994 15.1778 37.715 15.1217 37.336 15.1706L37.3467 15.1691V15.172ZM13.396 15.172H13.3587C12.3493 15.172 11.4413 15.6381 10.8173 16.3776L10.8147 16.3804C10.1298 17.1339 9.74727 18.1407 9.748 19.1882V19.2265V19.2251C9.73003 19.6102 9.78549 19.9951 9.91105 20.3569C10.0366 20.7187 10.2297 21.0497 10.4787 21.3302L10.4773 21.3288C10.9493 21.8161 11.5947 22.1165 12.3067 22.1165L12.4347 22.1136H12.428C12.8707 22.1066 13.2907 22.0088 13.6733 21.8346L13.652 21.8431C14.0507 21.6816 14.3893 21.4379 14.6627 21.1276L14.664 21.1262C14.6147 21.2651 14.584 21.4266 14.58 21.5937V21.5966C14.5809 21.8346 14.6724 21.954 14.8547 21.955H16.308C16.3648 21.9604 16.4221 21.9537 16.4764 21.9352C16.5307 21.9167 16.5809 21.8868 16.6242 21.8473C16.6675 21.8078 16.7028 21.7595 16.7282 21.7053C16.7536 21.651 16.7685 21.5919 16.772 21.5314V21.53L17.6373 15.6834C17.6448 15.6396 17.6429 15.5946 17.6318 15.5517C17.6208 15.5088 17.6008 15.4691 17.5733 15.4355C17.5489 15.4009 17.5173 15.3726 17.481 15.353C17.4448 15.3334 17.4047 15.3228 17.364 15.3221H15.76C15.564 15.3221 15.44 15.5701 15.4013 16.0616C15.164 15.7444 14.8548 15.4964 14.5027 15.3408C14.1506 15.1852 13.767 15.1271 13.388 15.172L13.3987 15.1706L13.396 15.172ZM43.4827 12.0355L43.4613 12.0341C43.3977 12.0338 43.3363 12.0591 43.2893 12.1047C43.2424 12.1504 43.2134 12.2132 43.208 12.2806L41.8373 21.6008C41.8261 21.6457 41.8259 21.6929 41.8369 21.7378C41.8479 21.7827 41.8696 21.8239 41.9 21.8572C41.9252 21.889 41.9567 21.9144 41.9921 21.9318C42.0276 21.9492 42.0663 21.9581 42.1053 21.9578H43.5053L43.548 21.9606C43.6541 21.9606 43.7558 21.9159 43.8308 21.8362C43.9059 21.7565 43.948 21.6484 43.948 21.5356V21.5328L45.316 12.3741L45.3173 12.3429C45.3175 12.2621 45.2927 12.1834 45.2467 12.1191V12.1205C45.1977 12.0666 45.1305 12.0355 45.06 12.0341L45.04 12.0355H43.4827ZM27.9227 12.0355C27.8655 12.028 27.8075 12.0332 27.7524 12.0509C27.6972 12.0686 27.6462 12.0983 27.6025 12.1382C27.5588 12.1781 27.5234 12.2272 27.4987 12.2825C27.4739 12.3377 27.4603 12.3979 27.4587 12.4591L26.0893 21.5994C26.0819 21.6429 26.0837 21.6875 26.0945 21.7302C26.1054 21.7728 26.125 21.8123 26.152 21.8459C26.1756 21.8811 26.2068 21.9098 26.243 21.9296C26.2792 21.9493 26.3193 21.9595 26.36 21.9592H28.1C28.1783 21.96 28.2543 21.9314 28.3148 21.8786C28.3752 21.8258 28.4163 21.752 28.4307 21.6702V21.6674L28.8107 19.0692C28.8158 19.0128 28.8316 18.958 28.857 18.9081C28.8824 18.8582 28.917 18.8143 28.9587 18.7788C29.0501 18.7016 29.1605 18.6513 29.276 18.6329H29.28C29.388 18.6116 29.512 18.6003 29.6387 18.5989C29.7507 18.5989 29.8853 18.6065 30.04 18.6216C30.209 18.6425 30.3792 18.652 30.5493 18.6499C31.5262 18.6516 32.4675 18.2604 33.184 17.5548L33.1813 17.5576C33.5386 17.1551 33.8145 16.679 33.992 16.1589C34.1695 15.6387 34.2448 15.0854 34.2133 14.5331V14.5444C34.242 14.1792 34.1831 13.8121 34.042 13.4777C33.9009 13.1432 33.6823 12.8522 33.4067 12.6319L33.4013 12.6276C32.7651 12.2002 32.0198 11.9928 31.268 12.0341H31.276L27.9227 12.0355ZM3.94667 12.0355C3.89089 12.0291 3.83448 12.0353 3.7811 12.0536C3.72772 12.0719 3.67856 12.102 3.63681 12.1418C3.59506 12.1816 3.56167 12.2303 3.53879 12.2847C3.51591 12.3391 3.50405 12.398 3.504 12.4576V12.4605L2.13333 21.6008C2.1259 21.6443 2.12767 21.6889 2.13851 21.7316C2.14935 21.7742 2.16899 21.8137 2.196 21.8473C2.21956 21.8826 2.25076 21.9113 2.28696 21.931C2.32317 21.9507 2.36331 21.9609 2.404 21.9606H4.00933C4.0665 21.9682 4.12451 21.9629 4.17965 21.9452C4.23479 21.9275 4.28584 21.8978 4.32953 21.8579C4.37321 21.818 4.40857 21.7689 4.43334 21.7136C4.4581 21.6584 4.47173 21.5982 4.47333 21.5371L4.85333 19.0735C4.85835 19.0171 4.87391 18.9624 4.89909 18.9126C4.92428 18.8627 4.95858 18.8187 5 18.7831C5.09148 18.7058 5.20179 18.6555 5.31733 18.6371H5.32133C5.43933 18.6152 5.55887 18.6038 5.67867 18.6031H5.68C5.792 18.6031 5.92533 18.6107 6.08 18.6258C6.2486 18.6467 6.41827 18.6562 6.588 18.6541C7.60533 18.6541 8.53067 18.2391 9.224 17.5591L9.22133 17.5619C9.57861 17.1593 9.8545 16.6833 10.032 16.1631C10.2095 15.6429 10.2848 15.0896 10.2533 14.5373V14.5486C10.282 14.1834 10.2231 13.8164 10.082 13.4819C9.94094 13.1475 9.72234 12.8565 9.44667 12.6361L9.44133 12.6319C8.80789 12.2059 8.06611 11.9981 7.31733 12.0369H7.32533L3.94667 12.0355ZM37.2587 20.3017L37.1947 20.3031C36.854 20.3035 36.5242 20.1755 36.264 19.9419L36.2667 19.9433C36.1472 19.8248 36.0517 19.6817 35.9861 19.5226C35.9205 19.3635 35.8862 19.1919 35.8853 19.0182L35.8867 18.9545V18.9162C35.8867 18.3864 36.088 17.9061 36.4147 17.5576C36.736 17.2077 37.184 16.991 37.68 16.991H37.724H37.7213L37.7667 16.9896C38.1253 16.9896 38.452 17.1298 38.7027 17.3607L38.7013 17.3593C38.825 17.4813 38.9236 17.629 38.991 17.7933C39.0585 17.9576 39.0933 18.1349 39.0933 18.3141L39.092 18.3821V18.3793V18.4133C39.092 18.9361 38.888 19.4092 38.5587 19.745C38.3924 19.9211 38.195 20.0607 37.9779 20.1558C37.7608 20.2508 37.5282 20.2994 37.2933 20.2989H37.26L37.2587 20.3017ZM13.2867 20.3017L13.22 20.3031C12.8707 20.3031 12.5493 20.1671 12.304 19.9419L12.3053 19.9433C12.1881 19.8242 12.0948 19.681 12.0311 19.5225C11.9674 19.364 11.9346 19.1934 11.9347 19.0211L11.936 18.9545V18.9162C11.936 18.3864 12.1373 17.9061 12.464 17.5576C12.7853 17.2077 13.232 16.991 13.728 16.991H13.7747H13.772L13.8173 16.9896C14.176 16.9896 14.5027 17.1298 14.7533 17.3607L14.752 17.3593C14.8752 17.4812 14.9735 17.6288 15.0407 17.7928C15.1079 17.9569 15.1426 18.1338 15.1427 18.3127L15.1413 18.3821V18.3793V18.4289C15.1413 18.9516 14.9373 19.422 14.608 19.7577C14.2666 20.1077 13.8104 20.3028 13.336 20.3017H13.2867ZM29.1627 16.6751L29.5213 14.2795C29.5242 14.2442 29.5336 14.2099 29.5489 14.1785C29.5643 14.1471 29.5853 14.1192 29.6108 14.0964C29.6363 14.0736 29.6658 14.0564 29.6976 14.0458C29.7294 14.0352 29.7628 14.0313 29.796 14.0344H30.1747L30.256 14.033C30.4871 14.033 30.7142 14.0495 30.9373 14.0826L30.912 14.0797C31.1187 14.1194 31.2987 14.2186 31.44 14.3602C31.5212 14.4406 31.5857 14.538 31.6296 14.6463C31.6734 14.7546 31.6956 14.8714 31.6947 14.9892L31.6933 15.0431V15.0402C31.7216 15.2769 31.6942 15.5174 31.6137 15.7401C31.5332 15.9628 31.4021 16.1609 31.232 16.3166L31.2307 16.3181C30.8058 16.5756 30.3187 16.6939 29.8307 16.6581H29.8387L29.1653 16.6807L29.1627 16.6751ZM5.19067 16.6751L5.54933 14.2795C5.55219 14.2442 5.56156 14.2099 5.57691 14.1785C5.59227 14.1471 5.6133 14.1192 5.63882 14.0964C5.66433 14.0736 5.69382 14.0564 5.7256 14.0458C5.75737 14.0352 5.79081 14.0313 5.824 14.0344H6.22267C6.64953 14.0015 7.07678 14.0926 7.45867 14.2979L7.44533 14.2908C7.69778 14.4636 7.78222 14.8254 7.69867 15.376C7.69267 15.5813 7.64008 15.782 7.54537 15.9611C7.45065 16.1402 7.31661 16.2923 7.15467 16.4045L7.15067 16.4073C6.51899 16.6558 5.84205 16.747 5.172 16.6736L5.19067 16.6751Z" fill="#111111"/>
</svg>
