<svg width="52" height="35" viewBox="0 0 52 35" fill="none" xmlns="http://www.w3.org/2000/svg">
<rect x="0.25" y="0.952148" width="51.5" height="33.5" rx="1.75" stroke="#111111" stroke-width="0.5"/>
<path d="M42.8675 12.6978H40.43C39.6825 12.6978 39.13 12.921 38.7725 13.6541L34.0925 24.1091H37.4075C37.4075 24.1091 37.9925 22.7066 38.09 22.3878H42.1525C42.2825 22.7703 42.5425 24.0772 42.5425 24.0772H45.5L42.8675 12.7297V12.6978ZM39 20.0291C39.2925 19.3597 40.2675 16.8416 40.2675 16.8416C40.2675 16.9053 40.56 16.1722 40.6575 15.7897L40.885 16.8097L41.6325 20.1247H39V20.061V20.0291ZM34.32 20.3478C34.32 22.7066 32.1425 24.2685 28.795 24.2685C27.365 24.2685 26 23.9816 25.2525 23.6628L25.7075 21.081L26.0975 21.2403C27.1375 21.6866 27.82 21.846 29.055 21.846C29.965 21.846 30.94 21.4953 30.94 20.7303C30.94 20.2203 30.55 19.9016 29.2825 19.3278C28.08 18.7541 26.4875 17.8616 26.4875 16.2678C26.4875 14.0366 28.6975 12.5066 31.85 12.5066C33.0525 12.5066 34.06 12.7297 34.71 13.0166L34.255 15.471L34.0275 15.2478C33.4425 15.0247 32.7275 14.8016 31.6225 14.8016C30.42 14.8653 29.8675 15.3753 29.8675 15.8216C29.8675 16.3316 30.55 16.7141 31.6225 17.2241C33.4425 18.0528 34.2875 19.0091 34.2875 20.3478H34.32ZM6.5 12.7935L6.565 12.5703H11.4725C12.155 12.5703 12.675 12.7935 12.8375 13.5266L13.91 18.5628C12.8375 15.8853 10.3025 13.686 6.5 12.7935Z" fill="#111111"/>
<path d="M20.8 12.6978L15.8275 24.0453H12.4475L9.5875 14.5465C11.635 15.8215 13.3575 17.8615 13.975 19.2322L14.3325 20.4115L17.42 12.634H20.8V12.6978ZM22.1325 12.634H25.2525L23.27 24.0453H20.15L22.1325 12.634Z" fill="#111111"/>
</svg>
