<svg width="56" height="35" viewBox="0 0 56 35" fill="none" xmlns="http://www.w3.org/2000/svg">
<path d="M25.3387 17.7418H27.4134C27.5198 17.1354 27.3294 16.6169 26.6659 16.6169C26.0023 16.6169 25.5319 16.9626 25.3387 17.7418ZM13.6437 18.8666L13.5401 18.8496C13.2321 18.7929 12.689 18.6909 12.213 19.0196C11.6782 19.3879 11.527 20.0339 12.0842 20.2521C12.619 20.4589 13.4085 20.1019 13.5177 19.5381L13.6437 18.8666ZM51.7218 18.6711C51.8954 18.1101 51.8002 17.4074 51.6154 17.1581C51.103 16.4668 49.9243 17.0136 49.5631 18.3708C49.3279 19.2576 49.8431 19.9291 50.4199 19.9291C51.0386 19.9291 51.4222 19.4304 51.7218 18.6711ZM41.8663 18.8666L41.7627 18.8496C41.4547 18.7929 40.9088 18.6909 40.4356 19.0196C39.9008 19.3879 39.7496 20.0339 40.3068 20.2521C40.8416 20.4589 41.6311 20.1019 41.7375 19.5381L41.8663 18.8666Z" fill="#111111"/>
<path d="M39.4248 0.928757C43.8208 0.928757 48.0368 2.69594 51.1452 5.84155C54.2537 8.98716 56 13.2535 56 17.7021C56 22.1507 54.2537 26.417 51.1452 29.5626C48.0368 32.7082 43.8208 34.4754 39.4248 34.4754C35.6183 34.4839 31.9274 33.1527 28.9841 30.7099C31.1949 28.5613 32.8241 25.8747 33.7159 22.9069H32.3384C31.4808 25.5492 29.9853 27.9332 27.9874 29.8429C26.0019 27.9321 24.5172 25.5514 23.6672 22.9154H22.2897C23.1701 25.8707 24.7814 28.5497 26.971 30.6986C24.0397 33.1308 20.3687 34.4649 16.578 34.4754C12.182 34.4754 7.966 32.7082 4.85755 29.5626C1.7491 26.417 0.00279236 22.1507 0.00279236 17.7021C0.00279236 13.2535 1.7491 8.98716 4.85755 5.84155C7.966 2.69594 12.182 0.928757 16.578 0.928757C20.5258 0.928757 24.1236 2.37376 26.971 4.70559C24.7814 6.8545 23.1701 9.53345 22.2897 12.4888H23.6672C24.5172 9.85275 26.0019 7.47211 27.9874 5.56126C29.9853 7.471 31.4808 9.85499 32.3384 12.4973H33.7159C32.8241 9.52952 31.1949 6.8429 28.9841 4.69426C31.9281 2.25086 35.6202 0.919652 39.4276 0.928757M44.9657 15.4241L43.8206 21.6291H45.5061L46.0241 18.7901C46.4945 17.0278 47.2196 17.0334 47.6452 17.0419H47.7096L48.1632 15.4269C47.3204 15.4269 46.8221 15.7301 46.5645 16.0361L46.4133 15.4241H44.9657ZM23.3116 13.8488H21.6429L20.4894 19.7336C20.1674 21.4194 21.4301 21.6603 21.8137 21.6603C22.247 21.6745 22.6758 21.5687 23.054 21.3543L23.1604 20.1019C22.2001 20.2521 22.1553 19.8186 22.2421 19.3426L22.7125 16.8323H23.5664L23.866 15.4921H22.97L23.3116 13.8488ZM26.5819 15.4071C23.9696 15.4071 23.5692 17.9486 23.4908 18.4586L23.4824 18.4983C23.418 18.8893 23.376 21.6376 26.2627 21.6376C26.9682 21.6574 27.993 21.5724 28.4018 21.3543L28.6566 20.0793C28.0347 20.1828 27.4053 20.233 26.7751 20.2294H26.7191C26.0527 20.2294 25.0503 20.2323 25.2351 18.8694H28.8693C29.0653 17.8721 29.5133 15.4071 26.5819 15.4071ZM20.4474 15.6196C19.7558 15.3533 19.1958 15.3703 18.9074 15.3788H18.7871C18.5043 15.3788 16.5556 15.3788 16.2532 16.8521C16.018 17.9996 16.4324 18.4728 16.83 18.6484C17.2499 18.8326 17.5495 19.0054 17.8043 19.1528C17.935 19.2321 18.06 19.302 18.1795 19.3624C18.5995 19.5749 18.5239 20.2918 17.9639 20.2918L17.7623 20.3003C17.3311 20.3258 16.452 20.3739 15.7632 20.1416L15.528 21.4166C16.298 21.6348 16.9167 21.6348 17.4935 21.6348H17.5579C18.0759 21.6404 19.9014 21.6574 20.1646 19.8809C20.3018 18.9743 19.9098 18.5606 19.5878 18.3679C19.2057 18.1154 18.8062 17.891 18.3923 17.6964C18.0507 17.5434 17.7931 16.9598 18.4119 16.7898C18.7983 16.7444 19.5878 16.7444 20.0582 16.8748L20.4474 15.6196ZM10.6339 14.1463H7.8956L5.8657 18.6909L5.54372 14.1463H2.87265L1.43912 21.6348H3.10784L4.13259 16.2231L4.58056 21.6348H6.16528L8.49477 16.3534L7.51202 21.6348H9.23953L10.6339 14.1463ZM10.8243 16.9399L11.2274 16.8889C11.7314 16.8238 12.4622 16.7274 12.8989 16.7444L13.0669 16.7473C13.5905 16.7586 14.1001 16.7699 13.9265 17.6086C13.8686 17.6124 13.7753 17.6124 13.6465 17.6086C12.7702 17.5803 10.4435 17.5094 10.0347 19.7733C9.8415 21.0483 10.9306 21.6999 11.7874 21.6546C12.6414 21.6121 12.8793 21.5044 13.1761 21.2863L13.3917 21.6348H14.9512L15.6148 18.2574C15.7856 17.4159 16.0628 15.3816 13.2629 15.3816L12.9941 15.3901C12.5406 15.4014 11.9862 15.4184 11.0818 15.5969L10.8243 16.9399ZM36.8238 15.5771C37.3809 15.5771 37.6777 15.6196 38.1061 15.8774L39.198 14.7753C38.7697 14.2993 38.2769 13.8318 36.9105 13.7808C35.7542 13.7354 33.7747 14.5883 33.1475 16.9173C32.2908 20.0764 34.1723 21.6348 35.9054 21.6348C36.8237 21.6348 37.3809 21.5044 37.9353 21.2438L37.4425 19.7308C35.7346 20.3144 34.5139 19.4276 34.7939 17.6313C35.0262 16.1126 36.2666 15.5743 36.8238 15.5743M52.0886 15.9114C51.8646 15.6734 51.607 15.4014 51.019 15.4014H50.8678C49.9495 15.3901 48.6252 15.3759 47.8552 18.0393C47.312 19.9178 48.4124 21.6319 49.6079 21.6319C50.1651 21.6093 50.7195 21.3713 51.0638 21.1333L51.2766 21.6319H53.0713L54.5273 13.7553H52.7718L52.3238 16.1353C52.2411 16.0644 52.1626 15.9887 52.0886 15.9086M39.0468 16.9343L39.45 16.8833C39.954 16.8181 40.682 16.7218 41.1215 16.7388L41.2895 16.7416C41.8131 16.7529 42.3227 16.7643 42.1463 17.6029C42.0903 17.6067 41.997 17.6067 41.8663 17.6029C40.9927 17.5746 38.6661 17.5038 38.2545 19.7676C38.0641 21.0426 39.1532 21.6943 40.01 21.6489C40.864 21.6064 41.0991 21.4988 41.3987 21.2806L41.6143 21.6291H43.1738L43.8374 18.2518C44.0054 17.4103 44.2854 15.3759 41.4855 15.3759L41.2167 15.3844C40.7632 15.3958 40.2088 15.4128 39.3044 15.5913L39.0468 16.9343ZM30.0509 15.4836L28.9169 21.6291H30.5857L31.098 18.8156C31.56 17.0873 32.2908 17.0986 32.7108 17.1043H32.7864L33.2147 15.4836C32.3832 15.4836 31.8904 15.7868 31.6328 16.0899L31.4844 15.4836H30.0509Z" fill="#111111"/>
</svg>
