<svg width="50" height="21" viewBox="0 0 50 21" fill="none" xmlns="http://www.w3.org/2000/svg">
<path fill-rule="evenodd" clip-rule="evenodd" d="M11.425 5.2822C10.5717 4.47128 9.43455 4.02702 8.2575 4.0447C6.1025 4.0447 4.275 5.4947 3.62 7.4522C3.275 8.4772 3.275 9.5872 3.62 10.6122C4.275 12.5697 6.1025 14.0222 8.2575 14.0222C9.3725 14.0222 10.3275 13.7347 11.0675 13.2322C11.4977 12.9468 11.8656 12.5773 12.1492 12.1459C12.4328 11.7146 12.6261 11.2303 12.7175 10.7222H8.2575V7.5422H16.0425C16.1392 8.0972 16.1867 8.6572 16.185 9.2222C16.185 11.7347 15.2875 13.8597 13.73 15.2972C12.36 16.5572 10.485 17.2897 8.255 17.2897C6.10838 17.225 4.07135 16.3268 2.57583 14.7855C1.0803 13.2442 0.243866 11.181 0.243866 9.03345C0.243866 6.88586 1.0803 4.8227 2.57583 3.28141C4.07135 1.74013 6.10838 0.841907 8.255 0.777202C10.305 0.752202 12.2875 1.5222 13.78 2.9272L11.425 5.2822ZM23.6475 10.4747V16.2947H21.8V1.9222H26.6975C27.2819 1.91005 27.863 2.01382 28.4071 2.22751C28.9512 2.44121 29.4475 2.76058 29.8675 3.1672C30.2919 3.54887 30.6298 4.01695 30.8583 4.54C31.0869 5.06305 31.2008 5.62896 31.1925 6.1997C31.2033 6.77337 31.0906 7.34266 30.862 7.86892C30.6333 8.39518 30.2942 8.86609 29.8675 9.2497C29.0125 10.0664 27.9558 10.4747 26.6975 10.4747H23.6475ZM23.6475 3.6922V8.7097H26.7425C27.0815 8.719 27.4188 8.6578 27.7329 8.52999C28.0471 8.40218 28.3313 8.21054 28.5675 7.9672C28.8022 7.73889 28.9888 7.46584 29.1162 7.16419C29.2436 6.86254 29.3093 6.5384 29.3093 6.21095C29.3093 5.8835 29.2436 5.55937 29.1162 5.25772C28.9888 4.95607 28.8022 4.68302 28.5675 4.4547C28.3349 4.20523 28.0519 4.00819 27.7372 3.87671C27.4225 3.74523 27.0834 3.68233 26.7425 3.6922H23.6475ZM35.4475 6.1422C36.8125 6.1422 37.89 6.50637 38.68 7.2347C39.4683 7.9647 39.8625 8.9647 39.8625 10.2347V16.2947H38.095V14.9297H38.015C37.2517 16.0547 36.235 16.6172 34.965 16.6172C33.8817 16.6172 32.9758 16.2955 32.2475 15.6522C31.8974 15.3577 31.6174 14.9887 31.4279 14.5722C31.2385 14.1557 31.1444 13.7022 31.1525 13.2447C31.1525 12.228 31.5367 11.4197 32.305 10.8197C33.075 10.2164 34.1017 9.9147 35.385 9.9147C36.4833 9.9147 37.3867 10.1147 38.095 10.5147V10.0947C38.0974 9.78264 38.0302 9.47398 37.8983 9.19115C37.7664 8.90833 37.5731 8.65845 37.3325 8.4597C36.8439 8.01932 36.2077 7.77842 35.55 7.7847C34.52 7.7847 33.7033 8.22054 33.1 9.0922L31.475 8.0672C32.37 6.78387 33.6942 6.1422 35.4475 6.1422ZM33.0575 13.2847C33.0562 13.5198 33.111 13.7519 33.2176 13.9615C33.3241 14.1711 33.4792 14.3522 33.67 14.4897C34.0786 14.8106 34.5856 14.9802 35.105 14.9697C35.885 14.9697 36.63 14.6597 37.18 14.1097C37.795 13.5347 38.1017 12.8589 38.1 12.0822C37.525 11.6222 36.7225 11.393 35.6925 11.3947C34.9425 11.3947 34.3175 11.5755 33.8175 11.9372C33.3108 12.3005 33.0575 12.7505 33.0575 13.2872M43.8325 20.6322L50 6.4622H47.99L45.14 13.5272H45.1L42.17 6.4622H40.1625L44.2175 15.6722L41.9275 20.6297L43.8325 20.6322Z" fill="#111111"/>
</svg>
