<svg width="53" height="36" viewBox="0 0 53 36" fill="none" xmlns="http://www.w3.org/2000/svg">
<path d="M5.15833 2.70429L4.17467 2.71027C3.84967 2.72024 3.51817 2.7362 3.19533 2.79005C2.70744 2.86101 2.24483 3.03759 1.84555 3.30526C1.44628 3.57292 1.12175 3.92401 0.898667 4.32966C0.747 4.60488 0.651667 4.88408 0.595333 5.18722C0.534667 5.48238 0.515167 5.78551 0.508667 6.08466L0.5 6.50147V29.5498C0.5 29.6881 0.502167 29.8257 0.5065 29.9626C0.515167 30.2618 0.534667 30.5669 0.593167 30.8641C0.6495 31.1619 0.752056 31.4471 0.900833 31.7196C1.2001 32.2607 1.67798 32.7006 2.26583 32.9761C2.56483 33.1157 2.86817 33.2054 3.1975 33.2593C3.51817 33.3131 3.8475 33.331 4.1725 33.339L4.62317 33.345H48.3768L48.8253 33.339C49.1503 33.331 49.4818 33.3131 49.8047 33.2593C50.1275 33.2054 50.4352 33.1177 50.732 32.9781C51.3219 32.7036 51.8009 32.2626 52.0992 31.7196C52.2508 31.4444 52.3483 31.1652 52.4047 30.8621C52.4632 30.5669 52.4827 30.2638 52.4913 29.9646C52.4957 29.8264 52.4978 29.6881 52.4978 29.5498L52.5 29.0592V6.49948C52.5 6.36121 52.4971 6.2236 52.4913 6.08665C52.4872 5.78459 52.4582 5.48325 52.4047 5.18522C52.2997 4.58513 51.9921 4.03072 51.5253 3.60076C51.0586 3.17079 50.4565 2.88712 49.8047 2.79005C49.4809 2.74074 49.1535 2.71407 48.8253 2.71027C48.4982 2.70208 48.171 2.70008 47.8438 2.70429H5.15833ZM5.15833 3.72538H48.366C48.5076 3.72538 48.6498 3.72738 48.7928 3.73136C49.042 3.73934 49.3345 3.75131 49.6053 3.79518C49.8415 3.83507 50.0387 3.8949 50.2272 3.98265C50.607 4.16057 50.9157 4.44475 51.109 4.79434C51.2082 4.97516 51.2769 5.16884 51.3127 5.3687C51.3603 5.614 51.3733 5.88323 51.3798 6.11457C51.3842 6.24354 51.3863 6.3745 51.3863 6.50746V29.5458C51.3863 29.6748 51.3842 29.8051 51.3798 29.9367C51.3733 30.1661 51.3603 30.4353 51.3105 30.6846C51.2631 30.9779 51.14 31.2565 50.9515 31.4969C50.763 31.7374 50.5146 31.9328 50.2272 32.0666C50.0321 32.1576 49.8232 32.2208 49.6075 32.2541C49.3398 32.2909 49.0699 32.3122 48.7993 32.3179L48.366 32.3239H4.62967C4.48522 32.3239 4.34367 32.3219 4.205 32.3179C3.93298 32.3123 3.66162 32.291 3.3925 32.2541C3.15633 32.2142 2.95917 32.1544 2.7685 32.0666C2.38676 31.8919 2.07777 31.6068 1.88883 31.255C1.78965 31.0741 1.72097 30.8805 1.68517 30.6806C1.64189 30.4346 1.61871 30.1859 1.61583 29.9367L1.6115 29.5438V6.50546L1.61583 6.11258C1.6245 5.88523 1.6375 5.61799 1.68517 5.36471C1.7285 5.14932 1.7935 4.96784 1.88883 4.79234C2.0825 4.44349 2.3912 4.16005 2.77067 3.98265C2.96644 3.89154 3.17611 3.82833 3.3925 3.79518C3.66333 3.75131 3.95583 3.73735 4.205 3.73136L4.62967 3.72538H5.15833ZM15.3633 11.1044C14.7133 11.1363 13.916 11.5012 13.4567 12.0138C13.0428 12.4525 12.6767 13.1705 12.772 13.8446C13.5043 13.9044 14.2345 13.5075 14.696 13.0109C15.1402 12.4964 15.4435 11.8084 15.3633 11.1064V11.1044ZM20.1452 11.942V22.8968H21.9912V19.1534H24.5478C26.8835 19.1534 28.5237 17.6796 28.5237 15.5397C28.5237 13.4058 26.916 11.94 24.6063 11.94L20.1452 11.942ZM21.9912 13.3759H24.1188C25.72 13.3759 26.6343 14.1656 26.6343 15.5477C26.6343 16.9278 25.72 17.7255 24.1123 17.7255H21.9912V13.3759ZM15.1575 13.9742C14.1825 13.9941 13.3592 14.5326 12.8825 14.5326C12.3733 14.5326 11.5977 14.0061 10.757 14.0201C10.2103 14.0334 9.67695 14.1779 9.20955 14.4391C8.74215 14.7004 8.35693 15.0695 8.092 15.5098C6.95017 17.3207 7.79083 20.007 8.90233 21.4828C9.44183 22.2127 10.0918 23.0164 10.9477 22.9865C11.7558 22.9586 12.0743 22.5039 13.0558 22.5039C14.0395 22.5039 14.3255 22.9865 15.1792 22.9726C16.0675 22.9586 16.6243 22.2426 17.1617 21.5107C17.7813 20.6791 18.0348 19.8754 18.05 19.8335C18.0348 19.8175 16.3383 19.2192 16.3232 17.4224C16.3058 15.9186 17.6557 15.2027 17.7185 15.1588C16.9558 14.1218 15.7685 14.0061 15.3568 13.9762L15.1575 13.9742ZM32.9328 14.7659C30.7878 14.7659 29.4532 15.8289 29.3535 17.2708H31.037C31.193 16.5568 31.8365 16.1021 32.8678 16.1021C33.9555 16.1021 34.6077 16.6326 34.6077 17.5201V18.1363L32.2308 18.264C30.1703 18.3717 29.0068 19.2292 29.0068 20.6252C29.0068 22.0611 30.1942 23.0324 31.8928 23.0324C33.0325 23.0324 34.1288 22.472 34.6315 21.5825H34.6727V22.8968H36.38V17.3924C36.38 15.791 35.0367 14.7659 32.9328 14.7659ZM37.1362 14.9095L40.2692 22.9047C40.2692 22.9107 40.111 23.3834 40.111 23.3973C39.8402 24.215 39.396 24.5361 38.5705 24.5361C38.421 24.5361 38.1242 24.5361 37.992 24.5062V25.8344C38.122 25.8563 38.5705 25.8723 38.7178 25.8723C40.5162 25.8723 41.3742 25.2501 42.1152 23.3136L45.3652 14.9095H43.4845L41.2918 21.409H41.2593L39.0645 14.9075L37.1362 14.9095ZM34.6077 19.2751V19.9053C34.6077 20.9443 33.6327 21.7341 32.389 21.7341C31.4313 21.7341 30.8052 21.2794 30.8052 20.5794C30.8052 19.8973 31.4075 19.4626 32.4713 19.3967L34.6077 19.2751Z" fill="#111111"/>
</svg>
