<svg width="18" height="18" viewBox="0 0 18 18" fill="none" xmlns="http://www.w3.org/2000/svg">
<path id="Vector" d="M16.9998 16.9998L13.1394 13.1394M13.1394 13.1394C13.7998 12.479 14.3236 11.6951 14.6809 10.8323C15.0383 9.96954 15.2222 9.04483 15.2222 8.11097C15.2222 7.17711 15.0383 6.2524 14.6809 5.38963C14.3236 4.52685 13.7998 3.74292 13.1394 3.08258C12.4791 2.42224 11.6951 1.89844 10.8324 1.54106C9.9696 1.18369 9.04489 0.999756 8.11103 0.999756C7.17717 0.999756 6.25246 1.18369 5.38969 1.54106C4.52691 1.89844 3.74298 2.42224 3.08264 3.08258C1.74903 4.41619 0.999817 6.22496 0.999817 8.11097C0.999817 9.99698 1.74903 11.8057 3.08264 13.1394C4.41625 14.473 6.22502 15.2222 8.11103 15.2222C9.99704 15.2222 11.8058 14.473 13.1394 13.1394Z" stroke="#111111" stroke-linecap="round" stroke-linejoin="round"/>
</svg>
