<svg width="17" height="18" viewBox="0 0 17 18" fill="none" xmlns="http://www.w3.org/2000/svg">
<g id="Group">
<path id="Vector" d="M0.5 6H16.5L15.665 15.181C15.6198 15.6779 15.3906 16.14 15.0222 16.4766C14.6538 16.8131 14.173 16.9998 13.674 17H3.326C2.82704 16.9998 2.34617 16.8131 1.9778 16.4766C1.60942 16.14 1.38016 15.6779 1.335 15.181L0.5 6Z" stroke="#111111" stroke-linejoin="round"/>
<path id="Vector_2" d="M4.5 8V5C4.5 3.93913 4.92143 2.92172 5.67157 2.17157C6.42172 1.42143 7.43913 1 8.5 1C9.56087 1 10.5783 1.42143 11.3284 2.17157C12.0786 2.92172 12.5 3.93913 12.5 5V8" stroke="#111111" stroke-linecap="round"/>
</g>
</svg>
