<svg width="24" height="24" viewBox="0 0 24 24" fill="none" xmlns="http://www.w3.org/2000/svg">
<path d="M16.852 10.582C17.7776 10.9647 18.7617 11.1865 19.762 11.238L19.838 9.74C19.0086 9.69757 18.1926 9.51393 17.425 9.197L16.852 10.582ZM16.085 10.222C16.3343 10.3547 16.59 10.4747 16.852 10.582L17.425 9.197C17.2088 9.10766 16.9972 9.00753 16.791 8.897L16.085 10.222ZM15.05 9.922V15.5H16.55V9.924L15.05 9.922ZM15.412 19.249C16.1538 18.139 16.5499 16.834 16.55 15.499H15.05C15.05 16.5375 14.742 17.5536 14.165 18.417L15.412 19.249ZM12.383 21.735C13.6166 21.2242 14.6711 20.3591 15.413 19.249L14.165 18.417C13.5881 19.2801 12.7682 19.9528 11.809 20.35L12.383 21.735ZM8.483 22.119C9.79237 22.3795 11.1496 22.2459 12.383 21.735L11.809 20.35C10.8499 20.7477 9.79442 20.8511 8.776 20.649L8.483 22.119ZM5.027 20.272C5.97102 21.2159 7.17371 21.8586 8.483 22.119L8.776 20.649C7.75749 20.4461 6.82205 19.9456 6.088 19.211L5.027 20.272ZM3.18 16.817C3.44038 18.1263 4.08314 19.329 5.027 20.273L6.087 19.213C5.35291 18.4784 4.85318 17.5416 4.651 16.523L3.18 16.817ZM3.564 12.917C3.05314 14.1504 2.91951 15.5076 3.18 16.817L4.65 16.524C4.44789 15.5056 4.55229 14.4501 4.95 13.491L3.564 12.917ZM6.05 9.887C4.9399 10.6289 4.07475 11.6834 3.564 12.917L4.95 13.491C5.34721 12.5318 6.01989 11.7119 6.883 11.135L6.05 9.887ZM9.35 8.765C8.17065 8.84395 7.0327 9.23019 6.05 9.887L6.883 11.135C7.64747 10.6243 8.53265 10.3232 9.45 10.262L9.35 8.765ZM10.55 12.7V9.9H9.05V12.7H10.55ZM8.883 14.128C9.07691 13.9985 9.29606 13.9116 9.526 13.873L9.277 12.393C8.83812 12.4671 8.41993 12.6325 8.05 12.88L8.883 14.128ZM8.276 14.868C8.40078 14.5668 8.612 14.3093 8.883 14.128L8.05 12.88C7.53216 13.226 7.12848 13.7187 6.89 14.294L8.276 14.868ZM8.182 15.822C8.11844 15.502 8.15115 15.1704 8.276 14.869L6.89 14.294C6.65133 14.8695 6.58869 15.5029 6.71 16.114L8.182 15.822ZM8.633 16.667C8.40242 16.4361 8.24548 16.1421 8.182 15.822L6.711 16.115C6.83268 16.7257 7.13265 17.2867 7.573 17.727L8.633 16.667ZM9.478 17.118C9.15794 17.0545 8.86388 16.8976 8.633 16.667L7.573 17.727C8.013 18.167 8.574 18.467 9.185 18.59L9.478 17.118ZM10.431 17.024C10.1296 17.1489 9.79798 17.1816 9.478 17.118L9.185 18.59C9.79612 18.7113 10.4295 18.6477 11.005 18.409L10.431 17.024ZM11.171 16.417C10.9897 16.688 10.7322 16.8992 10.431 17.024L11.005 18.409C11.5807 18.1707 12.0728 17.767 12.419 17.249L11.171 16.417ZM11.45 15.5C11.45 15.826 11.353 16.145 11.172 16.417L12.419 17.249C12.7652 16.731 12.95 16.123 12.95 15.5H11.45ZM12.95 15.5V2.9H11.45V15.5H12.95ZM12.6 3.25H15.4V1.75H12.6V3.25ZM16.828 3.897C16.6878 3.55672 16.5992 3.19744 16.565 2.831L15.071 2.968C15.118 3.484 15.243 3.99 15.442 4.471L16.828 3.897ZM17.619 5.081C17.2812 4.74127 17.0125 4.33916 16.828 3.897L15.442 4.471C15.7019 5.0949 16.081 5.66215 16.558 6.141L17.619 5.081ZM18.803 5.872C18.3608 5.68748 17.9587 5.41884 17.619 5.081L16.558 6.141C17.0368 6.61836 17.605 6.99777 18.229 7.258L18.803 5.872ZM19.869 6.135C19.5026 6.10084 19.1433 6.01219 18.803 5.872L18.229 7.258C18.709 7.457 19.216 7.582 19.732 7.628L19.869 6.135ZM20.95 10.1V7.3H19.45V10.1H20.95ZM19.732 7.629C19.6523 7.61952 19.5791 7.58043 19.5268 7.51949C19.4746 7.45855 19.4472 7.38021 19.45 7.3H20.95C20.95 6.65 20.432 6.186 19.869 6.135L19.732 7.629ZM19.762 11.239C19.9158 11.2462 20.0694 11.222 20.2136 11.168C20.3577 11.1139 20.4894 11.0311 20.6005 10.9245C20.7116 10.818 20.7999 10.6899 20.86 10.5482C20.9201 10.4064 20.9507 10.254 20.95 10.1H19.45C19.45 9.917 19.605 9.73 19.838 9.74L19.762 11.239ZM9.05 12.7C9.05 12.598 9.094 12.517 9.139 12.47C9.17561 12.4305 9.22401 12.4038 9.277 12.394L9.527 13.873C10.028 13.788 10.55 13.36 10.55 12.7H9.05ZM16.79 8.898C16.061 8.51 15.05 8.982 15.05 9.924H16.55C16.55 10.067 16.464 10.174 16.38 10.221C16.3348 10.2457 16.2841 10.2587 16.2326 10.2588C16.1811 10.259 16.1304 10.2464 16.085 10.222L16.79 8.898ZM12.95 2.9C12.95 2.99283 12.9131 3.08185 12.8475 3.14749C12.7819 3.21313 12.6928 3.25 12.6 3.25V1.75C12.295 1.75 12.0025 1.87116 11.7868 2.08683C11.5712 2.30249 11.45 2.595 11.45 2.9H12.95ZM15.4 3.25C15.3198 3.25282 15.2414 3.22539 15.1805 3.17316C15.1196 3.12093 15.0805 3.0477 15.071 2.968L16.565 2.831C16.514 2.268 16.051 1.75 15.4 1.75V3.25ZM9.45 10.262C9.39962 10.2661 9.34892 10.2598 9.30105 10.2436C9.25318 10.2274 9.20915 10.2015 9.17167 10.1676C9.13418 10.1336 9.10405 10.0924 9.08313 10.0464C9.0622 10.0004 9.05093 9.95054 9.05 9.9H10.55C10.55 9.28 10.037 8.72 9.35 8.765L9.45 10.262Z" fill="#111111"/>
</svg>
